<svg width="44" height="34" viewBox="0 0 44 34" fill="none" xmlns="http://www.w3.org/2000/svg">
<path d="M38.5434 9.12528L38.5943 9.10497L36.7833 5.14486C34.901 1.0426 30.1394 -0.866379 25.9375 0.798898L25.8968 0.819206L22.1425 2.85003C21.0131 3.45928 19.6498 3.48974 18.5001 2.92111L14.2777 0.839514L14.2269 0.819206C10.0351 -0.856225 5.27351 1.03244 3.38109 5.12456C2.07878 7.93725 1.72268 11.0241 2.34331 14.0602C2.42471 14.446 2.51627 14.8217 2.61802 15.1873H0.400024V16.6089H3.11656C3.9305 18.6092 5.18194 20.3862 6.80982 21.8586L20.0669 33.7998L28.0232 26.9965L27.0973 25.9202L20.0974 31.9111L7.7662 20.8025C6.44355 19.6145 5.3956 18.1929 4.66305 16.6089H12.4769L14.9289 10.5062L19.4158 26.6615L22.2035 16.8729H25.734V15.4513H21.125L19.4361 21.4016L15.1731 6.05874L11.5205 15.1873H4.11364C3.96102 14.7202 3.83893 14.2531 3.73719 13.7657C3.1776 11.0343 3.50318 8.25203 4.67322 5.71349C6.24006 2.32202 10.1877 0.748127 13.6673 2.12909L17.8693 4.19038C19.4361 4.96209 21.2878 4.92147 22.8241 4.09899L26.5072 2.10878C29.9868 0.748127 33.9243 2.33217 35.4911 5.7338L36.8748 8.75973C36.6408 8.73942 36.3966 8.71912 36.1524 8.71912C32.042 8.71912 28.6947 12.0598 28.6947 16.1621C28.6947 20.2644 32.042 23.6051 36.1524 23.6051C40.2629 23.6051 43.6102 20.2644 43.6102 16.1621C43.6 12.9026 41.4838 10.1204 38.5434 9.12528ZM36.1423 22.1936C32.8153 22.1936 30.1089 19.4926 30.1089 16.1722C30.1089 12.8518 32.8153 10.1508 36.1423 10.1508C39.4693 10.1508 42.1756 12.8518 42.1756 16.1722C42.1756 19.4926 39.4693 22.1936 36.1423 22.1936Z" fill="white"/>
</svg>
