<svg width="35" height="33" viewBox="0 0 35 33" fill="none" xmlns="http://www.w3.org/2000/svg">
<path d="M34.0401 8.08453V7.75358H33.851L30.2862 1.66418C29.6905 0.64298 28.5748 0 27.3834 0H17.7765H10.7794H6.73238C5.55989 0 4.45358 0.624069 3.84842 1.63582L0.189112 7.75358H0.0945559V7.91433L0 8.07507L0.0945559 8.13181V9.97565C0.0945559 11.4129 0.746991 12.7083 1.77765 13.5593V33H18.7221H28.1777H32.3381V13.5782C33.3782 12.7178 34.0401 11.4223 34.0401 9.97565V8.08453ZM29.1516 2.33553L32.3192 7.75358H25.9461L24.3009 1.32378H27.3834C28.102 1.32378 28.7828 1.71146 29.1516 2.33553ZM17.7765 9.07736H24.49V9.97565C24.49 11.8289 22.9865 13.3324 21.1332 13.3324C19.2799 13.3324 17.7765 11.8289 17.7765 9.97565V9.07736ZM22.9393 1.32378L24.5845 7.75358H17.7765V1.32378H22.9393ZM16.4527 1.32378V7.75358H9.53123L11.7249 1.32378H16.4527ZM9.45559 9.97565V9.07736H15.9799V9.97565C15.9799 11.8289 14.4765 13.3324 12.6232 13.3324C11.063 13.3324 9.75817 12.2639 9.37994 10.8266C9.42722 10.5524 9.45559 10.2688 9.45559 9.97565ZM4.98309 2.31662C5.35186 1.70201 6.02321 1.32378 6.73238 1.32378H10.3255L8.13181 7.75358H7.94269H1.73037L4.98309 2.31662ZM1.41834 9.97565V9.07736H7.94269V9.97565C7.94269 10.2688 7.97106 10.5524 8.01834 10.8266C7.64012 12.2639 6.33524 13.3324 4.77507 13.3324C2.92178 13.3324 1.41834 11.8289 1.41834 9.97565ZM20.0458 31.6762V21.5871C20.0458 20.6794 20.7834 19.9513 21.6817 19.9513H25.2086C26.1163 19.9513 26.8444 20.6888 26.8444 21.5871V31.6762H20.0458ZM31.0143 31.6762H28.1777V21.5871C28.1777 19.9513 26.8444 18.6275 25.2181 18.6275H21.6911C20.0553 18.6275 18.7315 19.9607 18.7315 21.5871V31.6762H3.10143V14.3441C3.62149 14.5427 4.18883 14.6562 4.78453 14.6562C6.4298 14.6562 7.8765 13.8052 8.7086 12.5192C9.54069 13.8052 10.9874 14.6562 12.6327 14.6562C14.5143 14.6562 16.1407 13.5309 16.8877 11.9235C17.6252 13.5309 19.2516 14.6562 21.1427 14.6562C22.9203 14.6562 24.4616 13.6633 25.2559 12.2072C26.0501 13.6633 27.5914 14.6562 29.3691 14.6562C29.9553 14.6562 30.5132 14.5521 31.0238 14.3536V31.6762H31.0143ZM32.7163 9.97565C32.7163 11.8289 31.2129 13.3324 29.3596 13.3324C27.5063 13.3324 26.0029 11.8289 26.0029 9.97565V9.07736H26.2865H32.7163V9.97565Z" fill="#102E93"/>
</svg>
